<svg width="38" height="47" viewBox="0 0 38 47" fill="none" xmlns="http://www.w3.org/2000/svg">
<path fill-rule="evenodd" clip-rule="evenodd" d="M0.0896251 35.9893C-0.0939262 36.5218 0.00859813 37.1121 0.359165 37.5536C4.56596 42.8468 11.3474 46.3012 19.0004 46.3012C26.6533 46.3012 33.4348 42.8468 37.6416 37.5536C37.9921 37.1121 38.093 36.5218 37.9111 35.9893C35.3678 28.5728 27.8737 23.1506 19.0004 23.1506C10.1271 23.1506 2.63288 28.5728 0.0896251 35.9893Z" fill="#52317D"/>
<path d="M19.0003 19.8434C24.4799 19.8434 28.922 15.4013 28.922 9.92169C28.922 4.44209 24.4799 0 19.0003 0C13.5207 0 9.07861 4.44209 9.07861 9.92169C9.07861 15.4013 13.5207 19.8434 19.0003 19.8434Z" fill="#52317D"/>
</svg>
